<svg xmlns="http://www.w3.org/2000/svg" id="Facebook" viewBox="0 0 232.3 428.8"><title>Facebook</title><path d="M457.7,140.2H402.3c-62.4,0-102.7,41.3-102.7,105.3v48.5H243.8a8.7,8.7,0,0,0-8.7,8.8V373a8.7,8.7,0,0,0,8.7,8.7h55.8V559.2a8.7,8.7,0,0,0,8.8,8.7h72.7a8.7,8.7,0,0,0,8.8-8.7V381.7h65.2a8.7,8.7,0,0,0,8.7-8.7V302.7a8.9,8.9,0,0,0-2.5-6.2,9,9,0,0,0-6.2-2.6H389.9V252.8c0-19.8,4.7-29.8,30.4-29.8h37.4a8.7,8.7,0,0,0,8.7-8.7V148.9a8.7,8.7,0,0,0-8.7-8.7Zm0,0" transform="translate(-234.6 -139.6)" fill="#333333"/><path d="M381.1,568.4H308.4a9.3,9.3,0,0,1-9.3-9.2v-177H243.8a9.2,9.2,0,0,1-9.2-9.2V302.7a9.3,9.3,0,0,1,9.2-9.3h55.3v-48c0-64.3,40.5-105.8,103.2-105.8h55.4a9.2,9.2,0,0,1,9.2,9.2v65.3a9.2,9.2,0,0,1-9.2,9.2H420.3c-25.3,0-29.9,9.8-29.9,29.3v40.6h64.7a9.2,9.2,0,0,1,9.2,9.3V373a9.2,9.2,0,0,1-9.2,9.2H390.4v177A9.3,9.3,0,0,1,381.1,568.4Zm-137.3-274a8.3,8.3,0,0,0-8.2,8.3V373a8.2,8.2,0,0,0,8.2,8.2h56.3v178a8.2,8.2,0,0,0,8.3,8.2h72.7a8.2,8.2,0,0,0,8.3-8.2v-178h65.7a8.2,8.2,0,0,0,8.2-8.2V302.7a8.2,8.2,0,0,0-8.2-8.3H389.4V252.8c0-20.1,4.8-30.3,30.9-30.3h37.4a8.1,8.1,0,0,0,8.2-8.2V148.9a8.2,8.2,0,0,0-8.2-8.2H402.3c-62.1,0-102.2,41.1-102.2,104.8v49Z" transform="translate(-234.6 -139.6)" fill="#333333"/></svg>