<svg xmlns="http://www.w3.org/2000/svg" id="Layer_1" data-name="Layer 1" viewBox="0 0 80.1 42.2"><title>Icon-Truck</title><path d="M55.3,28.8H13.8a3.9,3.9,0,0,0-3.9,3.9V60.2a3.9,3.9,0,0,0,3.9,3.9H17a8.2,8.2,0,0,1,16.4,0H55.3a3.8,3.8,0,0,0,3.9-3.9V32.7a3.8,3.8,0,0,0-3.9-3.9" transform="translate(-9.9 -28.8)" fill="#28566d"/><path d="M82.7,48.4h-16a1.3,1.3,0,0,1-1.3-1.3V42.3c0-1.5.5-2,2-2h7.5a5.2,5.2,0,0,1,2.3,1.2l5.9,6c.5.5.3.9-.4.9m5.5-.7-9.3-9.3a7.2,7.2,0,0,0-4.5-1.8h-9a3.8,3.8,0,0,0-3.9,3.9V59.9a3.9,3.9,0,0,0,3.6,3.9,8.3,8.3,0,0,1,16.4,0h4.6A3.8,3.8,0,0,0,90,59.9V52.1a7.2,7.2,0,0,0-1.8-4.4" transform="translate(-9.9 -28.8)" fill="#28566d"/><path d="M25.2,67.5a2.5,2.5,0,0,1-2.6-2.6,2.6,2.6,0,0,1,2.6-2.6,2.6,2.6,0,0,1,2.6,2.6,2.6,2.6,0,0,1-2.6,2.6m0-8.6a6.1,6.1,0,1,0,6,6,6,6,0,0,0-6-6" transform="translate(-9.9 -28.8)" fill="#28566d"/><path d="M73.3,67.5a2.6,2.6,0,0,1-2.6-2.6,2.6,2.6,0,1,1,5.2,0,2.6,2.6,0,0,1-2.6,2.6m0-8.6a6.1,6.1,0,1,0,6.1,6,6,6,0,0,0-6.1-6" transform="translate(-9.9 -28.8)" fill="#28566d"/></svg>