<svg xmlns="http://www.w3.org/2000/svg" id="Instagram" viewBox="0 0 427.4 427.4"><title>Instagram</title><path d="M433,140.2H272.7A133.6,133.6,0,0,0,139.1,273.7V434A133.6,133.6,0,0,0,272.7,567.6H433A133.6,133.6,0,0,0,566.5,434V273.7A133.5,133.5,0,0,0,433,140.2ZM526.5,434A93.6,93.6,0,0,1,433,527.5H272.7A93.5,93.5,0,0,1,179.2,434V273.7a93.6,93.6,0,0,1,93.5-93.5H433a93.7,93.7,0,0,1,93.5,93.5Z" transform="translate(-139.1 -140.2)" fill="#28566d"/><path d="M352.8,247A106.9,106.9,0,1,0,459.7,353.9,106.9,106.9,0,0,0,352.8,247Zm0,173.7a66.8,66.8,0,1,1,66.8-66.8A66.9,66.9,0,0,1,352.8,420.7Z" transform="translate(-139.1 -140.2)" fill="#28566d"/><circle cx="328.6" cy="98.8" r="14.2" fill="#28566d"/></svg>