<svg xmlns="http://www.w3.org/2000/svg" id="Telegram" viewBox="0 0 426.3 415.4"><title>Telegram</title><path d="M141.2,371.7c2.2-5.7,3.7-11.8,6.7-17s9.7-11.6,16.6-15.2c12.8-6.9,25.7-13.5,38.6-20.3l70.6-37.1L324,255.7l72.5-38L445,192.3c18.9-9.9,37.9-19.5,56.6-29.8,8.9-4.8,18.2-8.5,28.3-8.2,19.8.5,34.9,15.1,36.4,34.5.9,11.1-2.2,21.3-5,31.6-5.6,21-11.4,42-17.2,63s-10.7,39-16,58.5l-15.3,56.7c-5.3,19.4-10.5,38.8-15.9,58.1-4.5,16.4-8.7,32.8-13.8,48.9-5.5,17.6-23.7,24.6-40.2,17s-33.1-13.7-49.7-20.5l-31.7-12.9c-.8,11.3-6.9,19.9-12.5,28.8-7.5,12-15.2,24.1-23.4,35.6-4.2,6-9.2,11.6-16.9,13.8-15.1,4.3-30.8-2.4-37.1-17.7-4.5-10.9-9.5-21.7-14.2-32.6-5.8-13.7-12.2-27.2-17.3-41.2a43.5,43.5,0,0,1,2-35.1c.8-1.6,1.9-3,2.8-4.5a80.5,80.5,0,0,1-36.2-6.7c-12.8-5.4-25.8-10.4-38.7-15.5s-23.3-14.2-27.4-28.6c-.5-1.7-.9-3.5-1.4-5.3ZM455.6,495.6c2.2-7.6,4.4-14.8,6.3-22.1,5.8-21,11.4-42,17.1-63l16.8-61.7q8.6-31.4,17-62.6c5.2-19,10.3-38.1,15.4-57.1,3-11.1,6.2-22.2,9-33.4,1.7-6.5-3.7-12.9-9.6-11.8a27,27,0,0,0-6.6,2.2l-51.1,26.7-54,28.4L364.7,268l-53.6,28.1-51.2,26.8c-19.6,10.2-39.2,20.4-58.8,30.8-8.6,4.5-17.1,9-25.5,13.9-4.3,2.5-6.1,8.2-3.7,11.9a15.7,15.7,0,0,0,6.4,5.6c10.2,4.5,20.6,8.8,31,12.8,8.6,3.2,16.7,7.5,26.2,8.7,13.3,1.6,25.3-1.1,36.3-8.5,7.1-4.8,13.7-10.2,20.5-15.5l29.9-23.9,29.7-23.4,30.4-24L412,287.9c10-7.9,20-15.8,30.1-23.6,8.6-6.8,17.3-13.5,26-20.1a14.7,14.7,0,0,1,3.7-1.3l.6,1c-1.8,2.4-3.4,5-5.4,7.2-7.1,7.8-14.2,15.5-21.4,23.2-12.8,13.7-25.7,27.3-38.5,41.1-7.2,7.6-14.3,15.4-21.5,23.1L347.7,379c-6.3,6.6-12.7,13.1-18.9,19.8s-10.2,10.8-14.8,16.5c-6.9,8.6-3.2,20.6,5.4,24.3s14.7,6.9,22.2,9.9Q387,468,432.5,486Zm-156,43.5c5.1-7.5,9.9-14.5,14.5-21.6,5.5-8.7,11.1-17.5,16.2-26.4,3.3-5.7,2.3-9.6-3-13.1a152,152,0,0,0-13.7-7.8L297.9,462c-7-3.5-14.1-7.1-21.3-10.2-4.2-1.8-9,.8-9.1,4.9s-.2,8.6,1.3,12.3c5.1,12.8,11,25.3,16.5,37.9C290,517.3,294.6,527.8,299.6,539.1Z" transform="translate(-140.7 -153.8)" fill="#333333" stroke="#4b4b4b" stroke-miterlimit="10"/></svg>