<svg xmlns="http://www.w3.org/2000/svg" id="Twitter" viewBox="0 0 424.9 346.5"><title>Twitter</title><path d="M138.8,487.4v-1.2c5.9,0,11.8-.2,17.6,0a160,160,0,0,0,55-7.3,174,174,0,0,0,53.9-27.8c-18.8-1.8-35.1-7.8-49.5-18.6s-23.9-25.6-30.2-43.4h35.7c-45.8-13.2-69-57.3-64.4-87.4,22.1,9.2,26.3,10.3,33.4,8.5-42.7-34.5-39.8-88.6-21.4-114.4,46.9,55.1,106.2,85.6,178.5,91-.7-4.3-1.7-8.2-1.9-12-1.3-29.4,7.9-54.3,30.5-73.9A85.4,85.4,0,0,1,425,180c26.6-2.3,49.9,6.1,69.6,24.2,1.5,1.5,4.5,2.6,6.3,2.2a188.6,188.6,0,0,0,23.2-7.2c9.4-3.7,18.5-8.3,28.5-12.8-5.5,19.9-18,34-33.1,46.2.3.6.5,1.2.8,1.7l43.4-12.8a9.5,9.5,0,0,1-.9,2.7c-10.3,14.5-21.9,27.7-36.3,38.2-4.1,3.1-6.4,5.9-6.2,11.6,1.1,24.5-2.5,48.4-9.2,72-10.5,37-28.2,70-53.4,98.6a232.9,232.9,0,0,1-78.5,58.9c-32,14.7-65.6,21.2-100.4,22.6-11.9.4-24.1-.8-35.9-2.4a415,415,0,0,1-41.4-8.2C179.1,509.8,158.7,499,138.8,487.4Z" transform="translate(-138.8 -179.7)" fill="#333333"/></svg>